<svg width="451" height="1170" viewBox="0 0 451 1170" fill="none" xmlns="http://www.w3.org/2000/svg">
<path d="M-17 38.8987L112.294 228.165M179.5 326.543L112.294 228.165M179.5 326.543L81.25 396.207M179.5 326.543L39.6471 266.368M112.294 228.165L188.147 178.226M112.294 228.165L39.6471 266.368M264 128.288L399.5 201.697L450 -43M264 128.288L206.5 -43M264 128.288L365.5 -12.0383M264 128.288L188.147 178.226M264 128.288L132 88.837M-17 465.871L81.25 396.207M81.25 396.207L179.5 519.305M81.25 396.207L61.5 565.747M179.5 519.305L112.294 698.084M179.5 519.305L61.5 565.747M112.294 698.084L61.5 565.747M112.294 698.084L-33 650.143M112.294 698.084L179.5 766M61.5 565.747H-33M179.5 766L112.294 914.316M179.5 766C171.1 766 34.3333 790.969 -33 803.454L112.294 914.316M112.294 914.316L169 1073.12M112.294 914.316L61.5 1035.67L169 1073.12M169 1073.12L61.5 1169L-17 1111.07M-33 304.57L39.6471 266.368M188.147 178.226L132 88.837M132 88.837L118 -14.0358" stroke="#FDBB59"/>
</svg>
